<?xml version="1.0" encoding="UTF-8"?>
<svg version="1.1" xmlns="http://www.w3.org/2000/svg" width="256" height="59">
<path d="M0 0 C84.48 0 168.96 0 256 0 C256 19.47 256 38.94 256 59 C171.52 59 87.04 59 0 59 C0 39.53 0 20.06 0 0 Z " fill="#4A4A4C" transform="translate(0,0)"/>
<path d="M0 0 C0.89102417 -0.00960754 1.78204834 -0.01921509 2.70007324 -0.02911377 C4.13921082 -0.03548859 4.13921082 -0.03548859 5.60742188 -0.04199219 C6.59488403 -0.04769226 7.58234619 -0.05339233 8.59973145 -0.05926514 C10.68773325 -0.06871068 12.77574992 -0.07524735 14.86376953 -0.07910156 C18.06373871 -0.08882939 21.2630716 -0.11986612 24.46289062 -0.15136719 C26.49023056 -0.15789511 28.51757508 -0.16314641 30.54492188 -0.16699219 C31.50434692 -0.17933899 32.46377197 -0.19168579 33.45227051 -0.20440674 C34.78880676 -0.19990509 34.78880676 -0.19990509 36.15234375 -0.1953125 C36.93605347 -0.19895813 37.71976318 -0.20260376 38.52722168 -0.20635986 C41.14001777 0.26226228 42.02178078 1.03305182 43.57617188 3.16113281 C43.84259082 6.89099803 43.76068497 9.60759353 42.57617188 13.16113281 C42.50951812 14.55552946 42.49078989 15.95283156 42.51367188 17.34863281 C42.53429687 18.60675781 42.55492187 19.86488281 42.57617188 21.16113281 C41.91617188 21.16113281 41.25617188 21.16113281 40.57617188 21.16113281 C39.91617188 18.85113281 39.25617188 16.54113281 38.57617188 14.16113281 C33.29617187 13.83113281 28.01617187 13.50113281 22.57617188 13.16113281 C22.57617188 15.80113281 22.57617188 18.44113281 22.57617188 21.16113281 C21.58617187 21.16113281 20.59617188 21.16113281 19.57617188 21.16113281 C19.24617188 18.19113281 18.91617188 15.22113281 18.57617188 12.16113281 C17.58617187 12.49113281 16.59617188 12.82113281 15.57617188 13.16113281 C15.45242187 14.10988281 15.32867187 15.05863281 15.20117188 16.03613281 C14.57617188 19.16113281 14.57617188 19.16113281 12.57617188 21.16113281 C9.28482828 21.63559664 5.96037303 21.5314968 2.63867188 21.53613281 C1.71892578 21.560625 0.79917969 21.58511719 -0.1484375 21.61035156 C-1.03208984 21.61421875 -1.91574219 21.61808594 -2.82617188 21.62207031 C-4.0403479 21.63439697 -4.0403479 21.63439697 -5.27905273 21.64697266 C-7.42382812 21.16113281 -7.42382812 21.16113281 -9.1862793 19.29614258 C-11.53210107 15.24914882 -10.92663277 10.6863746 -10.42382812 6.16113281 C-9.11132812 3.03613281 -9.11132812 3.03613281 -7.42382812 1.16113281 C-4.62874249 0.2294376 -2.89241373 0.0251999 0 0 Z " fill="#545456" transform="translate(147.423828125,20.8388671875)"/>
<path d="M0 0 C0.89102417 -0.00960754 1.78204834 -0.01921509 2.70007324 -0.02911377 C4.13921082 -0.03548859 4.13921082 -0.03548859 5.60742188 -0.04199219 C6.59488403 -0.04769226 7.58234619 -0.05339233 8.59973145 -0.05926514 C10.68773325 -0.06871068 12.77574992 -0.07524735 14.86376953 -0.07910156 C18.06373871 -0.08882939 21.2630716 -0.11986612 24.46289062 -0.15136719 C26.49023056 -0.15789511 28.51757508 -0.16314641 30.54492188 -0.16699219 C31.50434692 -0.17933899 32.46377197 -0.19168579 33.45227051 -0.20440674 C34.78880676 -0.19990509 34.78880676 -0.19990509 36.15234375 -0.1953125 C36.93605347 -0.19895813 37.71976318 -0.20260376 38.52722168 -0.20635986 C41.14001777 0.26226228 42.02178078 1.03305182 43.57617188 3.16113281 C43.84259082 6.89099803 43.76068497 9.60759353 42.57617188 13.16113281 C42.50951812 14.55552946 42.49078989 15.95283156 42.51367188 17.34863281 C42.53429687 18.60675781 42.55492187 19.86488281 42.57617188 21.16113281 C41.91617188 21.16113281 41.25617188 21.16113281 40.57617188 21.16113281 C39.91617188 18.85113281 39.25617188 16.54113281 38.57617188 14.16113281 C33.29617187 13.83113281 28.01617187 13.50113281 22.57617188 13.16113281 C22.57617188 15.80113281 22.57617188 18.44113281 22.57617188 21.16113281 C21.58617187 21.16113281 20.59617188 21.16113281 19.57617188 21.16113281 C19.57617188 17.86113281 19.57617188 14.56113281 19.57617188 11.16113281 C29.47617188 10.66613281 29.47617188 10.66613281 39.57617188 10.16113281 C39.57617188 8.18113281 39.57617188 6.20113281 39.57617188 4.16113281 C24.39617187 4.16113281 9.21617187 4.16113281 -6.42382812 4.16113281 C-6.96998511 11.40809698 -6.96998511 11.40809698 -5.42382812 18.16113281 C-0.14382812 18.16113281 5.13617188 18.16113281 10.57617188 18.16113281 C11.23617187 16.51113281 11.89617187 14.86113281 12.57617188 13.16113281 C8.94617188 13.16113281 5.31617188 13.16113281 1.57617188 13.16113281 C1.57617188 12.50113281 1.57617188 11.84113281 1.57617188 11.16113281 C6.19617188 11.16113281 10.81617188 11.16113281 15.57617188 11.16113281 C15.57617188 17.16113281 15.57617188 17.16113281 14.36132812 19.50292969 C12.12091407 21.58401452 11.03995804 21.6753812 8.01367188 21.69238281 C7.13453125 21.69753906 6.25539062 21.70269531 5.34960938 21.70800781 C4.434375 21.69253906 3.51914063 21.67707031 2.57617188 21.66113281 C1.20332031 21.68433594 1.20332031 21.68433594 -0.19726562 21.70800781 C-1.51597656 21.70027344 -1.51597656 21.70027344 -2.86132812 21.69238281 C-3.66441406 21.68787109 -4.4675 21.68335937 -5.29492188 21.67871094 C-7.42382812 21.16113281 -7.42382812 21.16113281 -9.18408203 19.29174805 C-11.53573995 15.25021227 -10.9263376 10.68371808 -10.42382812 6.16113281 C-9.11132812 3.03613281 -9.11132812 3.03613281 -7.42382812 1.16113281 C-4.62874249 0.2294376 -2.89241373 0.0251999 0 0 Z " fill="#CECECF" transform="translate(147.423828125,20.8388671875)"/>
<path d="M0 0 C1.00417969 -0.01933594 2.00835937 -0.03867187 3.04296875 -0.05859375 C6.45950584 0.55339526 7.63276089 1.81036814 9.8125 4.4375 C9.1525 4.4375 8.4925 4.4375 7.8125 4.4375 C7.8125 5.0975 7.8125 5.7575 7.8125 6.4375 C8.4725 6.4375 9.1325 6.4375 9.8125 6.4375 C9.8125 8.7475 9.8125 11.0575 9.8125 13.4375 C3.84749261 17.45474988 3.84749261 17.45474988 -0.9375 17.375 C-5.38647523 16.09164176 -5.38647523 16.09164176 -7.1875 13.4375 C-8.375 10.75 -8.375 10.75 -9.1875 8.4375 C-11.4975 8.1075 -13.8075 7.7775 -16.1875 7.4375 C-16.5175 8.4275 -16.8475 9.4175 -17.1875 10.4375 C-18.1775 10.4375 -19.1675 10.4375 -20.1875 10.4375 C-20.1875 11.0975 -20.1875 11.7575 -20.1875 12.4375 C-21.83203125 14.1640625 -21.83203125 14.1640625 -24 16.0625 C-25.06154297 17.00996094 -25.06154297 17.00996094 -26.14453125 17.9765625 C-28.1875 19.4375 -28.1875 19.4375 -31.1875 19.4375 C-31.5175 20.4275 -31.8475 21.4175 -32.1875 22.4375 C-34.1675 22.4375 -36.1475 22.4375 -38.1875 22.4375 C-38.5175 21.4475 -38.8475 20.4575 -39.1875 19.4375 C-38.094375 19.334375 -37.00125 19.23125 -35.875 19.125 C-32.20213192 18.44022798 -31.43512314 18.15830696 -29.1875 15.4375 C-28.5275 15.4375 -27.8675 15.4375 -27.1875 15.4375 C-27.1875 14.7775 -27.1875 14.1175 -27.1875 13.4375 C-25.03479604 11.69682537 -22.88637681 10.08777521 -20.625 8.5 C-19.71137695 7.83581055 -19.71137695 7.83581055 -18.77929688 7.15820312 C-12.86546396 2.95906885 -7.46032423 0.00965113 0 0 Z " fill="#484948" transform="translate(120.1875,21.5625)"/>
<path d="M0 0 C2.96175123 0.61277612 4.38058783 1.25372522 7 3 C7.93952704 8.31037024 8.49198297 14.42745968 5.7109375 19.22265625 C1.65546233 22.99110007 -2.56642237 24.09332481 -8 24 C-8.69609375 23.99871094 -9.3921875 23.99742188 -10.109375 23.99609375 C-13.97659136 23.77074844 -15.87581571 23.10258702 -18.875 20.625 C-22.56900366 16.06181901 -23.22088468 13.85344412 -23 8 C-21.125 7.375 -21.125 7.375 -19 7 C-17 9 -17 9 -16.1875 11.5 C-15.20409994 14.16927999 -15.20409994 14.16927999 -12.6875 15.375 C-9.64480064 16.0826045 -7.96947583 15.91368487 -5 15 C-4.2575 14.79375 -3.515 14.5875 -2.75 14.375 C-0.59002318 12.98206154 -0.59002318 12.98206154 -0.25 9.375 C-0.1675 8.26125 -0.085 7.1475 0 6 C-0.66 6 -1.32 6 -2 6 C-2 5.34 -2 4.68 -2 4 C-1.01 4.33 -0.02 4.66 1 5 C0.67 3.35 0.34 1.7 0 0 Z " fill="#335746" transform="translate(130,22)"/>
<path d="M0 0 C0.66 0.66 1.32 1.32 2 2 C1.625 4.125 1.625 4.125 1 6 C0.4225 5.175 -0.155 4.35 -0.75 3.5 C-3.55310682 0.68087543 -5.98009481 0.57809334 -9.875 0.5 C-19.61065265 0.98559825 -25.01042479 5.30305689 -32.42578125 11.13671875 C-35 13 -35 13 -37 13 C-37 13.66 -37 14.32 -37 15 C-38.42578125 16.2890625 -38.42578125 16.2890625 -40.3125 17.625 C-40.92738281 18.07101563 -41.54226562 18.51703125 -42.17578125 18.9765625 C-44 20 -44 20 -47 20 C-47 19.34 -47 18.68 -47 18 C-44.93286133 16.20747391 -42.86029247 14.53114137 -40.6875 12.875 C-40.05175049 12.38652588 -39.41600098 11.89805176 -38.76098633 11.39477539 C-37.46141475 10.39937619 -36.15956676 9.40694206 -34.85546875 8.41748047 C-33.2009113 7.15348566 -31.5676174 5.8617674 -29.9375 4.56640625 C-20.96165438 -2.38222424 -10.55780616 -6.38378977 0 0 Z " fill="#D4BB5B" transform="translate(130,22)"/>
<path d="M0 0 C1.32 0.33 2.64 0.66 4 1 C3.01 1.495 3.01 1.495 2 2 C1.97305149 3.95825873 1.95362782 5.91662226 1.9375 7.875 C1.92589844 8.96554688 1.91429687 10.05609375 1.90234375 11.1796875 C1.80255697 13.95177546 1.80255697 13.95177546 3 16 C8.28 16 13.56 16 19 16 C19.66 14.35 20.32 12.7 21 11 C17.37 11 13.74 11 10 11 C10 10.34 10 9.68 10 9 C14.62 9 19.24 9 24 9 C24 15 24 15 22.78515625 17.34179688 C20.5447422 19.4228817 19.46378616 19.51424839 16.4375 19.53125 C15.55835938 19.53640625 14.67921875 19.5415625 13.7734375 19.546875 C12.85820312 19.53140625 11.94296875 19.5159375 11 19.5 C9.62714844 19.52320313 9.62714844 19.52320313 8.2265625 19.546875 C6.90785156 19.53914063 6.90785156 19.53914063 5.5625 19.53125 C4.75941406 19.52673828 3.95632812 19.52222656 3.12890625 19.51757812 C1 19 1 19 -0.76245117 17.1328125 C-2.32996226 14.43133748 -2.36798293 12.60704422 -2.3125 9.5 C-2.30863281 8.5615625 -2.30476562 7.623125 -2.30078125 6.65625 C-1.9976364 3.97912666 -1.36176004 2.30034365 0 0 Z " fill="#E7E7E9" transform="translate(139,23)"/>
<path d="M0 0 C1.65 0 3.3 0 5 0 C6.46220279 2.56035921 7.91985153 5.1231356 9.375 7.6875 C9.7875 8.40873047 10.2 9.12996094 10.625 9.87304688 C12.68432272 13.51007651 14.58289052 17.05233788 16 21 C15.01 21 14.02 21 13 21 C11.49480613 18.37785672 9.99568681 15.75255792 8.5 13.125 C8.07074219 12.37863281 7.64148438 11.63226563 7.19921875 10.86328125 C6.59013672 9.79013672 6.59013672 9.79013672 5.96875 8.6953125 C5.59169922 8.03547363 5.21464844 7.37563477 4.82617188 6.69580078 C4 5 4 5 4 3 C1.05966118 5.59759994 -0.67673342 8.6174776 -2.625 12 C-3.23601562 13.051875 -3.84703125 14.10375 -4.4765625 15.1875 C-6.08244243 17.95768508 -6.08244243 17.95768508 -7 21 C-8.32 21 -9.64 21 -11 21 C-9.3003494 16.26525903 -6.86340973 12.03832889 -4.375 7.6875 C-3.95476562 6.94693359 -3.53453125 6.20636719 -3.1015625 5.44335938 C-2.07051505 3.62730989 -1.03563954 1.81343467 0 0 Z " fill="#E0E0E2" transform="translate(205,21)"/>
<path d="M0 0 C2.65822762 2.65822762 2.35980571 4.1060254 2.4375 7.8125 C2.37023887 12.12756041 2.29570672 13.58108214 -0.25 17.1875 C-5.04890448 20.35041432 -10.35418794 20.84980216 -16 20 C-18.86844427 18.67289819 -19.85585819 17.51936663 -22 15 C-22.875 11.1875 -22.875 11.1875 -23 8 C-22.01 8 -21.02 8 -20 8 C-19.525625 9.134375 -19.05125 10.26875 -18.5625 11.4375 C-17.36377917 14.75740166 -17.36377917 14.75740166 -16 16 C-13.98035801 16.07244053 -11.95832876 16.08377188 -9.9375 16.0625 C-8.83277344 16.05347656 -7.72804688 16.04445313 -6.58984375 16.03515625 C-5.73519531 16.02355469 -4.88054687 16.01195313 -4 16 C-3.67 15.01 -3.34 14.02 -3 13 C-2.34 13 -1.68 13 -1 13 C-1.01160156 12.39671875 -1.02320313 11.7934375 -1.03515625 11.171875 C-1.04417969 10.37265625 -1.05320313 9.5734375 -1.0625 8.75 C-1.07410156 7.96109375 -1.08570313 7.1721875 -1.09765625 6.359375 C-1.00385306 4.09308998 -0.63241063 2.1711105 0 0 Z " fill="#28815B" transform="translate(132,24)"/>
<path d="M0 0 C7.92 0 15.84 0 24 0 C24 5.94 24 11.88 24 18 C28.95 18 33.9 18 39 18 C39 18.66 39 19.32 39 20 C33.39 20 27.78 20 22 20 C22 14.06 22 8.12 22 2 C14.74 2 7.48 2 0 2 C0 1.34 0 0.68 0 0 Z " fill="#ECECEE" transform="translate(16,22)"/>
<path d="M0 0 C5.61 0 11.22 0 17 0 C17 0.99 17 1.98 17 3 C12.38 3 7.76 3 3 3 C3 5.31 3 7.62 3 10 C8.61 10 14.22 10 20 10 C20 10.66 20 11.32 20 12 C13.4 12 6.8 12 0 12 C0 8.04 0 4.08 0 0 Z " fill="#DCDCDE" transform="translate(58,30)"/>
<path d="M0 0 C0.33 0 0.66 0 1 0 C1.125 6.625 1.125 6.625 0 10 C-0.06665376 11.39439664 -0.08538199 12.79169875 -0.0625 14.1875 C-0.041875 15.445625 -0.02125 16.70375 0 18 C-0.66 18 -1.32 18 -2 18 C-2.66 15.69 -3.32 13.38 -4 11 C-9.28 10.67 -14.56 10.34 -20 10 C-20 12.64 -20 15.28 -20 18 C-20.99 18 -21.98 18 -23 18 C-23 14.7 -23 11.4 -23 8 C-13.1 7.505 -13.1 7.505 -3 7 C-2.67 5.35 -2.34 3.7 -2 2 C-1.34 1.34 -0.68 0.68 0 0 Z " fill="#EFEFF1" transform="translate(190,24)"/>
<path d="M0 0 C0.33 1.32 0.66 2.64 1 4 C-2 5 -2 5 -5 4 C-5.33 4.99 -5.66 5.98 -6 7 C-6.99 7 -7.98 7 -9 7 C-9 7.66 -9 8.32 -9 9 C-10.64453125 10.7265625 -10.64453125 10.7265625 -12.8125 12.625 C-13.52019531 13.25664063 -14.22789063 13.88828125 -14.95703125 14.5390625 C-17 16 -17 16 -20 16 C-20.33 16.99 -20.66 17.98 -21 19 C-22.98 19 -24.96 19 -27 19 C-27.33 18.01 -27.66 17.02 -28 16 C-26.906875 15.896875 -25.81375 15.79375 -24.6875 15.6875 C-21.01463192 15.00272798 -20.24762314 14.72080696 -18 12 C-17.34 12 -16.68 12 -16 12 C-16 11.34 -16 10.68 -16 10 C-13.74185152 8.20173555 -11.48722261 6.5253199 -9.125 4.875 C-8.47402344 4.40707031 -7.82304688 3.93914063 -7.15234375 3.45703125 C-2.26412172 0 -2.26412172 0 0 0 Z " fill="#605530" transform="translate(109,25)"/>
<path d="M0 0 C5.61 0 11.22 0 17 0 C17 0.99 17 1.98 17 3 C12.05 3 7.1 3 2 3 C2 5.97 2 8.94 2 12 C1.34 12 0.68 12 0 12 C0 8.04 0 4.08 0 0 Z " fill="#DDDDDF" transform="translate(16,30)"/>
<path d="M0 0 C2.60717097 0.35756872 3.70968397 0.63307567 5.37207031 2.73413086 C5.77006836 3.47026611 6.16806641 4.20640137 6.578125 4.96484375 C7.23554688 6.16463867 7.23554688 6.16463867 7.90625 7.38867188 C8.3496875 8.22978516 8.793125 9.07089844 9.25 9.9375 C9.70890625 10.77474609 10.1678125 11.61199219 10.640625 12.47460938 C14 18.68845331 14 18.68845331 14 21 C13.01 21 12.02 21 11 21 C9.34999614 18.06482399 7.70572568 15.12647526 6.0625 12.1875 C5.59392578 11.35412109 5.12535156 10.52074219 4.64257812 9.66210938 C3.9706543 8.45844727 3.9706543 8.45844727 3.28515625 7.23046875 C2.87144775 6.49207764 2.45773926 5.75368652 2.03149414 4.99291992 C1 3 1 3 0 0 Z " fill="#DEDEDF" transform="translate(217,21)"/>
<path d="M0 0 C0.99 0 1.98 0 3 0 C3 1.65 3 3.3 3 5 C1.68 5.33 0.36 5.66 -1 6 C0.20381448 8.49361571 1.45428722 10.68143083 3 13 C-1.40114397 12.49701212 -3.71195019 10.91227269 -7 8 C-6.67 7.01 -6.34 6.02 -6 5 C-5.34 5 -4.68 5 -4 5 C-4 4.34 -4 3.68 -4 3 C-3.01 2.67 -2.02 2.34 -1 2 C-0.67 1.34 -0.34 0.68 0 0 Z " fill="#50504F" transform="translate(104,29)"/>
<path d="M0 0 C1.32 0 2.64 0 4 0 C5.6735337 2.95449913 7.33763985 5.9142018 9 8.875 C9.47695312 9.71675781 9.95390625 10.55851562 10.4453125 11.42578125 C10.89648438 12.23144531 11.34765625 13.03710938 11.8125 13.8671875 C12.44091797 14.98262939 12.44091797 14.98262939 13.08203125 16.12060547 C14 18 14 18 14 20 C13.01 20 12.02 20 11 20 C9.49480613 17.37785672 7.99568681 14.75255792 6.5 12.125 C5.85611328 11.00544922 5.85611328 11.00544922 5.19921875 9.86328125 C4.79316406 9.14785156 4.38710937 8.43242187 3.96875 7.6953125 C3.59169922 7.03547363 3.21464844 6.37563477 2.82617188 5.69580078 C2 4 2 4 2 2 C1.34 2 0.68 2 0 2 C0 1.34 0 0.68 0 0 Z " fill="#E1E1E3" transform="translate(207,22)"/>
<path d="M0 0 C0.66 0.66 1.32 1.32 2 2 C1.625 4.125 1.625 4.125 1 6 C0.37738281 5.18144531 -0.24523437 4.36289062 -0.88671875 3.51953125 C-3.37866222 1.02758778 -5.15081318 0.61961401 -8.64453125 0.51171875 C-10.36786751 0.54473285 -12.09086882 0.60405032 -13.8125 0.6875 C-14.69615234 0.71005859 -15.57980469 0.73261719 -16.49023438 0.75585938 C-18.6608891 0.81452572 -20.8306669 0.90420021 -23 1 C-22 -1 -22 -1 -20.1796875 -1.6328125 C-12.66050079 -3.23860492 -6.8804002 -4.16024198 0 0 Z " fill="#ABAD5A" transform="translate(130,22)"/>
<path d="M0 0 C6.6 0 13.2 0 20 0 C20 0.99 20 1.98 20 3 C13.4 3 6.8 3 0 3 C0 2.01 0 1.02 0 0 Z " fill="#CFCFD1" transform="translate(58,21)"/>
<path d="M0 0 C0.99 0 1.98 0 3 0 C1.65072455 4.53847198 -0.19159348 8.31932246 -2.625 12.375 C-3.25664062 13.43460938 -3.88828125 14.49421875 -4.5390625 15.5859375 C-5.02117187 16.38257812 -5.50328125 17.17921875 -6 18 C-6.66 17.67 -7.32 17.34 -8 17 C-6.3341708 10.83643195 -3.12194714 5.51740344 0 0 Z " fill="#DFDFE1" transform="translate(240,22)"/>
<path d="M0 0 C3.3 0 6.6 0 10 0 C10 1.32 10 2.64 10 4 C4.72 4 -0.56 4 -6 4 C-6.33 3.34 -6.66 2.68 -7 2 C-4.69 2.33 -2.38 2.66 0 3 C0 2.01 0 1.02 0 0 Z " fill="#474648" transform="translate(149,35)"/>
<path d="M0 0 C1.32 0.33 2.64 0.66 4 1 C1.90603799 2.86694188 -0.19870197 4.71826176 -2.3125 6.5625 C-2.90740234 7.09552734 -3.50230469 7.62855469 -4.11523438 8.17773438 C-5.67819037 9.53113202 -7.33487746 10.7744864 -9 12 C-9.99 11.67 -10.98 11.34 -12 11 C-11.01 10.67 -10.02 10.34 -9 10 C-9.33 9.01 -9.66 8.02 -10 7 C-9.34 6.67 -8.68 6.34 -8 6 C-7.01 5.34 -6.02 4.68 -5 4 C-4.29875 3.67 -3.5975 3.34 -2.875 3 C-0.82955462 2.14139842 -0.82955462 2.14139842 0 0 Z " fill="#5C4F2C" transform="translate(94,28)"/>
<path d="M0 0 C0.33 0 0.66 0 1 0 C1.125 6.625 1.125 6.625 0 10 C-0.06665376 11.39439664 -0.08538199 12.79169875 -0.0625 14.1875 C-0.041875 15.445625 -0.02125 16.70375 0 18 C-0.66 18 -1.32 18 -2 18 C-4.00493094 11.76243707 -4.14458633 8.21930035 -2 2 C-1.34 1.34 -0.68 0.68 0 0 Z " fill="#DDDDDF" transform="translate(190,24)"/>
<path d="M0 0 C1.63001953 0.01353516 1.63001953 0.01353516 3.29296875 0.02734375 C4.12441406 0.03894531 4.95585938 0.05054687 5.8125 0.0625 C6.1425 0.7225 6.4725 1.3825 6.8125 2.0625 C-2.0975 3.0525 -2.0975 3.0525 -11.1875 4.0625 C-8.11354407 -0.54843389 -5.19401656 -0.05584964 0 0 Z " fill="#585633" transform="translate(119.1875,16.9375)"/>
<path d="M0 0 C0.33 1.32 0.66 2.64 1 4 C0.34 4 -0.32 4 -1 4 C-1 4.66 -1 5.32 -1 6 C-2.42578125 7.2890625 -2.42578125 7.2890625 -4.3125 8.625 C-4.92738281 9.07101563 -5.54226562 9.51703125 -6.17578125 9.9765625 C-8 11 -8 11 -11 11 C-11 10.34 -11 9.68 -11 9 C-9.21895282 7.39821407 -7.37462722 5.86618074 -5.5 4.375 C-4.4790625 3.55773438 -3.458125 2.74046875 -2.40625 1.8984375 C-1.6121875 1.27195313 -0.818125 0.64546875 0 0 Z " fill="#CCB557" transform="translate(94,31)"/>
<path d="M0 0 C5.04969516 0.44556134 7.47618687 2.55813601 11 6 C11 6.99 11 7.98 11 9 C9.68 8.67 8.36 8.34 7 8 C7 7.34 7 6.68 7 6 C6.401875 5.7525 5.80375 5.505 5.1875 5.25 C2.71352479 3.83629988 1.56629745 2.34944617 0 0 Z " fill="#DBDADA" transform="translate(82,22)"/>
<path d="M0 0 C4.37859255 0.50522222 6.81651224 3.17827222 10 6 C8.375 6.8125 8.375 6.8125 6 7 C2.75 4.6875 2.75 4.6875 0 2 C0 1.34 0 0.68 0 0 Z " fill="#D9D7D8" transform="translate(97,35)"/>
<path d="M0 0 C1.05445312 -0.02578125 2.10890625 -0.0515625 3.1953125 -0.078125 C4.07960938 0.03015625 4.96390625 0.1384375 5.875 0.25 C6.535 1.24 7.195 2.23 7.875 3.25 C7.359375 3.085 6.84375 2.92 6.3125 2.75 C0.48417608 1.55444637 -5.30563035 2.43324636 -11.125 3.25 C-10.125 1.25 -10.125 1.25 -8.4453125 0.640625 C-5.60821879 0.1629998 -2.87703349 0.04241327 0 0 Z " fill="#555830" transform="translate(120.125,21.75)"/>
<path d="M0 0 C0.66 0.66 1.32 1.32 2 2 C1.625 4.125 1.625 4.125 1 6 C0.360625 5.195625 -0.27875 4.39125 -0.9375 3.5625 C-4.90127449 0.24587237 -7.97294083 0.12047418 -13 0 C-13 -0.33 -13 -0.66 -13 -1 C-4.39835729 -2.45790554 -4.39835729 -2.45790554 0 0 Z " fill="#729759" transform="translate(130,22)"/>
<path d="M0 0 C0.99 0.33 1.98 0.66 3 1 C3 3.97 3 6.94 3 10 C2.01 10 1.02 10 0 10 C0 6.7 0 3.4 0 0 Z " fill="#DCDCDE" transform="translate(167,32)"/>
<path d="M0 0 C0.66 0.33 1.32 0.66 2 1 C2.5625 2.9375 2.5625 2.9375 3 5 C3.33 5.66 3.66 6.32 4 7 C3.01 7 2.02 7 1 7 C1 7.66 1 8.32 1 9 C-0.32 8.67 -1.64 8.34 -3 8 C-2.01 8 -1.02 8 0 8 C-0.33 7.401875 -0.66 6.80375 -1 6.1875 C-2 4 -2 4 -2 1 C-1.34 0.67 -0.68 0.34 0 0 Z " fill="#5B5B5D" transform="translate(231,34)"/>
<path d="M0 0 C1 1 1 1 1.0625 4.0625 C1.041875 5.031875 1.02125 6.00125 1 7 C0.62230469 6.35546875 0.24460938 5.7109375 -0.14453125 5.046875 C-1.86059908 2.75970238 -1.86059908 2.75970238 -4.69921875 2.390625 C-6.17841797 2.32101563 -6.17841797 2.32101563 -7.6875 2.25 C-8.68136719 2.19328125 -9.67523438 2.1365625 -10.69921875 2.078125 C-11.83810547 2.03945313 -11.83810547 2.03945313 -13 2 C-13 1.67 -13 1.34 -13 1 C-3.88743455 -0.23560209 -3.88743455 -0.23560209 0 0 Z " fill="#E9E9EB" transform="translate(189,22)"/>
<path d="M0 0 C0.33 0 0.66 0 1 0 C1.22179212 3.25295114 1.28601103 5.42797793 -0.1875 8.375 C-2 10 -2 10 -4.6875 10.25 C-5.450625 10.1675 -6.21375 10.085 -7 10 C-5.68 9.67 -4.36 9.34 -3 9 C-2.814375 7.329375 -2.814375 7.329375 -2.625 5.625 C-2 2 -2 2 0 0 Z " fill="#D0D0D2" transform="translate(162,32)"/>
<path d="M0 0 C1.32 0.33 2.64 0.66 4 1 C2.71283353 2.00578589 1.42011342 3.00446798 0.125 4 C-0.95394531 4.8353125 -0.95394531 4.8353125 -2.0546875 5.6875 C-4 7 -4 7 -6 7 C-5.67 5.35 -5.34 3.7 -5 2 C-3.35 2 -1.7 2 0 2 C0 1.34 0 0.68 0 0 Z " fill="#60532E" transform="translate(104,21)"/>
<path d="M0 0 C1.65 0 3.3 0 5 0 C4.01 0.33 3.02 0.66 2 1 C1.87625 1.78375 1.7525 2.5675 1.625 3.375 C1 6 1 6 -1 8 C-1.66 7.67 -2.32 7.34 -3 7 C-1.125 2.25 -1.125 2.25 0 0 Z " fill="#D0D0D2" transform="translate(205,21)"/>
<path d="M0 0 C0.33 0.66 0.66 1.32 1 2 C0.0625 4.625 0.0625 4.625 -1 7 C-2.32 7 -3.64 7 -5 7 C-3.75023244 3.34683329 -3.32901247 2.21934164 0 0 Z " fill="#D7D7D9" transform="translate(199,35)"/>
<path d="M0 0 C0.66 0 1.32 0 2 0 C1.67 0.99 1.34 1.98 1 3 C-1.97 3 -4.94 3 -8 3 C-8.33 2.34 -8.66 1.68 -9 1 C-7.700625 1.020625 -6.40125 1.04125 -5.0625 1.0625 C-3.70834367 1.08399454 -2.35243917 1.07148199 -1 1 C-0.67 0.67 -0.34 0.34 0 0 Z " fill="#3A4F44" transform="translate(125,37)"/>
<path d="M0 0 C0.33 1.32 0.66 2.64 1 4 C-2 5 -2 5 -5 4 C-4.67 3.01 -4.34 2.02 -4 1 C-2 0 -2 0 0 0 Z " fill="#5B5130" transform="translate(109,25)"/>
<path d="M0 0 C1.32 0.33 2.64 0.66 4 1 C4.625 2.875 4.625 2.875 5 5 C4.34 5.66 3.68 6.32 3 7 C0 2.25 0 2.25 0 0 Z " fill="#D3D3D5" transform="translate(217,21)"/>
</svg>
